<?xml version="1.0" standalone="no"?>
<!DOCTYPE svg PUBLIC "-//W3C//DTD SVG 20010904//EN"
 "http://www.w3.org/TR/2001/REC-SVG-20010904/DTD/svg10.dtd">
<svg version="1.0" xmlns="http://www.w3.org/2000/svg"
 width="1024.000000pt" height="183.000000pt" viewBox="0 0 1024.000000 183.000000"
 preserveAspectRatio="xMidYMid meet">

<g transform="translate(0.000000,183.000000) scale(0.100000,-0.100000)"
fill="#000000" stroke="none">
<path d="M92 1738 c-9 -9 -11 -204 -10 -827 1 -449 4 -754 5 -679 l4 138 5029
0 5029 0 4 -137 c1 -76 4 229 5 677 1 624 -1 819 -10 828 -17 17 -10039 17
-10056 0z m128 -86 c0 -13 7 -18 23 -18 18 1 22 -5 25 -36 4 -42 -15 -53 -20
-13 -2 14 -7 26 -13 26 -5 0 -11 -12 -13 -26 -6 -47 -22 -25 -22 30 0 30 5 55
10 55 6 0 10 -8 10 -18z m300 -38 l0 -55 -31 3 c-58 6 -66 68 -10 76 11 2 21
10 21 18 0 8 5 14 10 14 6 0 10 -25 10 -56z m2190 38 c0 -13 7 -18 23 -18 18
1 22 -5 25 -36 4 -42 -15 -53 -20 -13 -2 14 -7 26 -13 26 -5 0 -11 -12 -13
-26 -6 -47 -22 -25 -22 30 0 30 5 55 10 55 6 0 10 -8 10 -18z m300 -38 l0 -55
-31 3 c-58 6 -66 68 -10 76 11 2 21 10 21 18 0 8 5 14 10 14 6 0 10 -25 10
-56z m2220 38 c0 -13 7 -18 23 -18 18 1 22 -5 25 -36 4 -42 -15 -53 -20 -13
-2 14 -7 26 -13 26 -5 0 -11 -12 -13 -26 -6 -47 -22 -25 -22 30 0 30 5 55 10
55 6 0 10 -8 10 -18z m300 -38 l0 -55 -31 3 c-58 6 -66 68 -10 76 11 2 21 10
21 18 0 8 5 14 10 14 6 0 10 -25 10 -56z m2230 38 c0 -13 7 -18 23 -18 18 1
22 -5 25 -36 4 -42 -15 -53 -20 -13 -2 14 -7 26 -13 26 -5 0 -11 -12 -13 -26
-6 -47 -22 -25 -22 30 0 30 5 55 10 55 6 0 10 -8 10 -18z m300 -38 l0 -55 -31
3 c-58 6 -66 68 -10 76 11 2 21 10 21 18 0 8 5 14 10 14 6 0 10 -25 10 -56z
m-7715 16 c5 -8 11 -7 20 0 8 6 24 10 37 8 18 -2 24 -11 29 -39 5 -36 5 -37
-28 -37 -21 0 -37 6 -40 15 -5 13 -7 13 -15 -1 -17 -30 -68 -13 -68 24 0 33
50 55 65 30z m255 -5 c17 -21 -2 -65 -28 -65 -22 0 -42 19 -42 40 0 37 47 53
70 25z m70 5 c0 -4 -7 -10 -15 -14 -8 -3 -15 -17 -15 -31 0 -14 -4 -25 -10
-25 -5 0 -10 17 -10 39 0 34 3 39 25 39 14 0 25 -4 25 -8z m2165 0 c5 -8 11
-7 20 0 8 6 24 10 37 8 18 -2 24 -11 29 -39 5 -36 5 -37 -28 -37 -21 0 -37 6
-40 15 -5 13 -7 13 -15 -1 -17 -30 -68 -13 -68 24 0 33 50 55 65 30z m255 -5
c17 -21 -2 -65 -28 -65 -22 0 -42 19 -42 40 0 37 47 53 70 25z m70 5 c0 -4 -7
-10 -15 -14 -8 -3 -15 -17 -15 -31 0 -14 -4 -25 -10 -25 -5 0 -10 17 -10 39 0
34 3 39 25 39 14 0 25 -4 25 -8z m2195 0 c5 -8 11 -7 20 0 8 6 24 10 37 8 18
-2 24 -11 29 -39 5 -36 5 -37 -28 -37 -21 0 -37 6 -40 15 -5 13 -7 13 -15 -1
-17 -30 -68 -13 -68 24 0 33 50 55 65 30z m255 -5 c17 -21 -2 -65 -28 -65 -22
0 -42 19 -42 40 0 37 47 53 70 25z m70 5 c0 -4 -7 -10 -15 -14 -8 -3 -15 -17
-15 -31 0 -14 -4 -25 -10 -25 -5 0 -10 17 -10 39 0 34 3 39 25 39 14 0 25 -4
25 -8z m2205 0 c5 -8 11 -7 20 0 8 6 24 10 37 8 18 -2 24 -11 29 -39 5 -36 5
-37 -28 -37 -21 0 -37 6 -40 15 -5 13 -7 13 -15 -1 -17 -30 -68 -13 -68 24 0
33 50 55 65 30z m255 -5 c17 -21 -2 -65 -28 -65 -22 0 -42 19 -42 40 0 37 47
53 70 25z m70 5 c0 -4 -7 -10 -15 -14 -8 -3 -15 -17 -15 -31 0 -14 -4 -25 -10
-25 -5 0 -10 17 -10 39 0 34 3 39 25 39 14 0 25 -4 25 -8z m1940 -700 l0 -550
-5030 0 -5030 0 0 550 0 550 5030 0 5030 0 0 -550z"/>
<path d="M464 1609 c-10 -17 13 -36 27 -22 12 12 4 33 -11 33 -5 0 -12 -5 -16
-11z"/>
<path d="M2954 1609 c-10 -17 13 -36 27 -22 12 12 4 33 -11 33 -5 0 -12 -5
-16 -11z"/>
<path d="M5474 1609 c-10 -17 13 -36 27 -22 12 12 4 33 -11 33 -5 0 -12 -5
-16 -11z"/>
<path d="M8004 1609 c-10 -17 13 -36 27 -22 12 12 4 33 -11 33 -5 0 -12 -5
-16 -11z"/>
<path d="M388 1613 c7 -3 16 -2 19 1 4 3 -2 6 -13 5 -11 0 -14 -3 -6 -6z"/>
<path d="M390 1590 c-13 -8 -12 -10 3 -10 9 0 17 5 17 10 0 12 -1 12 -20 0z"/>
<path d="M318 1583 c7 -3 16 -2 19 1 4 3 -2 6 -13 5 -11 0 -14 -3 -6 -6z"/>
<path d="M568 1583 c7 -3 16 -2 19 1 4 3 -2 6 -13 5 -11 0 -14 -3 -6 -6z"/>
<path d="M2878 1613 c7 -3 16 -2 19 1 4 3 -2 6 -13 5 -11 0 -14 -3 -6 -6z"/>
<path d="M2880 1590 c-13 -8 -12 -10 3 -10 9 0 17 5 17 10 0 12 -1 12 -20 0z"/>
<path d="M2808 1583 c7 -3 16 -2 19 1 4 3 -2 6 -13 5 -11 0 -14 -3 -6 -6z"/>
<path d="M3058 1583 c7 -3 16 -2 19 1 4 3 -2 6 -13 5 -11 0 -14 -3 -6 -6z"/>
<path d="M5398 1613 c7 -3 16 -2 19 1 4 3 -2 6 -13 5 -11 0 -14 -3 -6 -6z"/>
<path d="M5400 1590 c-13 -8 -12 -10 3 -10 9 0 17 5 17 10 0 12 -1 12 -20 0z"/>
<path d="M5328 1583 c7 -3 16 -2 19 1 4 3 -2 6 -13 5 -11 0 -14 -3 -6 -6z"/>
<path d="M5578 1583 c7 -3 16 -2 19 1 4 3 -2 6 -13 5 -11 0 -14 -3 -6 -6z"/>
<path d="M7928 1613 c7 -3 16 -2 19 1 4 3 -2 6 -13 5 -11 0 -14 -3 -6 -6z"/>
<path d="M7930 1590 c-13 -8 -12 -10 3 -10 9 0 17 5 17 10 0 12 -1 12 -20 0z"/>
<path d="M7858 1583 c7 -3 16 -2 19 1 4 3 -2 6 -13 5 -11 0 -14 -3 -6 -6z"/>
<path d="M8108 1583 c7 -3 16 -2 19 1 4 3 -2 6 -13 5 -11 0 -14 -3 -6 -6z"/>
<path d="M243 1375 c0 -27 2 -38 4 -22 2 15 2 37 0 50 -2 12 -4 0 -4 -28z"/>
<path d="M2733 1375 c0 -27 2 -38 4 -22 2 15 2 37 0 50 -2 12 -4 0 -4 -28z"/>
<path d="M5253 1375 c0 -27 2 -38 4 -22 2 15 2 37 0 50 -2 12 -4 0 -4 -28z"/>
<path d="M7783 1375 c0 -27 2 -38 4 -22 2 15 2 37 0 50 -2 12 -4 0 -4 -28z"/>
<path d="M338 1399 c-6 -17 3 -69 11 -69 7 0 6 69 -2 76 -3 3 -7 0 -9 -7z"/>
<path d="M2828 1399 c-6 -17 3 -69 11 -69 7 0 6 69 -2 76 -3 3 -7 0 -9 -7z"/>
<path d="M5348 1399 c-6 -17 3 -69 11 -69 7 0 6 69 -2 76 -3 3 -7 0 -9 -7z"/>
<path d="M7878 1399 c-6 -17 3 -69 11 -69 7 0 6 69 -2 76 -3 3 -7 0 -9 -7z"/>
<path d="M276 1381 c-3 -5 2 -7 13 -4 15 4 21 -1 24 -21 4 -26 4 -26 3 1 -1
28 -28 44 -40 24z"/>
<path d="M376 1381 c-3 -5 2 -7 13 -4 15 4 21 -1 24 -21 4 -26 4 -26 3 1 -1
28 -28 44 -40 24z"/>
<path d="M2766 1381 c-3 -5 2 -7 13 -4 15 4 21 -1 24 -21 4 -26 4 -26 3 1 -1
28 -28 44 -40 24z"/>
<path d="M2866 1381 c-3 -5 2 -7 13 -4 15 4 21 -1 24 -21 4 -26 4 -26 3 1 -1
28 -28 44 -40 24z"/>
<path d="M5286 1381 c-3 -5 2 -7 13 -4 15 4 21 -1 24 -21 4 -26 4 -26 3 1 -1
28 -28 44 -40 24z"/>
<path d="M5386 1381 c-3 -5 2 -7 13 -4 15 4 21 -1 24 -21 4 -26 4 -26 3 1 -1
28 -28 44 -40 24z"/>
<path d="M7816 1381 c-3 -5 2 -7 13 -4 15 4 21 -1 24 -21 4 -26 4 -26 3 1 -1
28 -28 44 -40 24z"/>
<path d="M7916 1381 c-3 -5 2 -7 13 -4 15 4 21 -1 24 -21 4 -26 4 -26 3 1 -1
28 -28 44 -40 24z"/>
<path d="M270 1351 c0 -10 19 -25 25 -20 1 2 -3 10 -11 17 -8 7 -14 8 -14 3z"/>
<path d="M370 1351 c0 -10 19 -25 25 -20 1 2 -3 10 -11 17 -8 7 -14 8 -14 3z"/>
<path d="M2760 1351 c0 -10 19 -25 25 -20 1 2 -3 10 -11 17 -8 7 -14 8 -14 3z"/>
<path d="M2860 1351 c0 -10 19 -25 25 -20 1 2 -3 10 -11 17 -8 7 -14 8 -14 3z"/>
<path d="M5280 1351 c0 -10 19 -25 25 -20 1 2 -3 10 -11 17 -8 7 -14 8 -14 3z"/>
<path d="M5380 1351 c0 -10 19 -25 25 -20 1 2 -3 10 -11 17 -8 7 -14 8 -14 3z"/>
<path d="M7810 1351 c0 -10 19 -25 25 -20 1 2 -3 10 -11 17 -8 7 -14 8 -14 3z"/>
<path d="M7910 1351 c0 -10 19 -25 25 -20 1 2 -3 10 -11 17 -8 7 -14 8 -14 3z"/>
<path d="M240 1182 c0 -13 -7 -18 -22 -18 -18 1 -23 -5 -23 -24 0 -20 5 -25
28 -26 25 -1 27 1 27 42 0 24 -2 44 -5 44 -3 0 -5 -8 -5 -18z m-4 -33 c10 -17
-13 -36 -27 -22 -12 12 -4 33 11 33 5 0 12 -5 16 -11z"/>
<path d="M2730 1182 c0 -13 -7 -18 -22 -18 -18 1 -23 -5 -23 -24 0 -20 5 -25
28 -26 25 -1 27 1 27 42 0 24 -2 44 -5 44 -3 0 -5 -8 -5 -18z m-4 -33 c10 -17
-13 -36 -27 -22 -12 12 -4 33 11 33 5 0 12 -5 16 -11z"/>
<path d="M5250 1182 c0 -13 -7 -18 -22 -18 -18 1 -23 -5 -23 -24 0 -20 5 -25
28 -26 25 -1 27 1 27 42 0 24 -2 44 -5 44 -3 0 -5 -8 -5 -18z m-4 -33 c10 -17
-13 -36 -27 -22 -12 12 -4 33 11 33 5 0 12 -5 16 -11z"/>
<path d="M7780 1182 c0 -13 -7 -18 -22 -18 -18 1 -23 -5 -23 -24 0 -20 5 -25
28 -26 25 -1 27 1 27 42 0 24 -2 44 -5 44 -3 0 -5 -8 -5 -18z m-4 -33 c10 -17
-13 -36 -27 -22 -12 12 -4 33 11 33 5 0 12 -5 16 -11z"/>
<path d="M338 1179 c-6 -17 3 -69 11 -69 7 0 6 69 -2 76 -3 3 -7 0 -9 -7z"/>
<path d="M2828 1179 c-6 -17 3 -69 11 -69 7 0 6 69 -2 76 -3 3 -7 0 -9 -7z"/>
<path d="M5348 1179 c-6 -17 3 -69 11 -69 7 0 6 69 -2 76 -3 3 -7 0 -9 -7z"/>
<path d="M7878 1179 c-6 -17 3 -69 11 -69 7 0 6 69 -2 76 -3 3 -7 0 -9 -7z"/>
<path d="M276 1161 c-3 -5 3 -7 14 -4 12 3 20 2 19 -3 -4 -21 2 -44 10 -44 5
0 6 12 2 28 -7 27 -34 41 -45 23z"/>
<path d="M376 1161 c-3 -5 3 -7 14 -4 12 3 20 2 19 -3 -4 -21 2 -44 10 -44 5
0 6 12 2 28 -7 27 -34 41 -45 23z"/>
<path d="M2766 1161 c-3 -5 3 -7 14 -4 12 3 20 2 19 -3 -4 -21 2 -44 10 -44 5
0 6 12 2 28 -7 27 -34 41 -45 23z"/>
<path d="M2866 1161 c-3 -5 3 -7 14 -4 12 3 20 2 19 -3 -4 -21 2 -44 10 -44 5
0 6 12 2 28 -7 27 -34 41 -45 23z"/>
<path d="M5286 1161 c-3 -5 3 -7 14 -4 12 3 20 2 19 -3 -4 -21 2 -44 10 -44 5
0 6 12 2 28 -7 27 -34 41 -45 23z"/>
<path d="M5386 1161 c-3 -5 3 -7 14 -4 12 3 20 2 19 -3 -4 -21 2 -44 10 -44 5
0 6 12 2 28 -7 27 -34 41 -45 23z"/>
<path d="M7816 1161 c-3 -5 3 -7 14 -4 12 3 20 2 19 -3 -4 -21 2 -44 10 -44 5
0 6 12 2 28 -7 27 -34 41 -45 23z"/>
<path d="M7916 1161 c-3 -5 3 -7 14 -4 12 3 20 2 19 -3 -4 -21 2 -44 10 -44 5
0 6 12 2 28 -7 27 -34 41 -45 23z"/>
<path d="M272 1128 c2 -6 10 -13 16 -14 7 -1 8 0 2 3 -5 2 -8 9 -4 14 3 5 0 9
-6 9 -7 0 -10 -5 -8 -12z"/>
<path d="M372 1128 c2 -6 10 -13 16 -14 7 -1 8 0 2 3 -5 2 -8 9 -4 14 3 5 0 9
-6 9 -7 0 -10 -5 -8 -12z"/>
<path d="M2762 1128 c2 -6 10 -13 16 -14 7 -1 8 0 2 3 -5 2 -8 9 -4 14 3 5 0
9 -6 9 -7 0 -10 -5 -8 -12z"/>
<path d="M2862 1128 c2 -6 10 -13 16 -14 7 -1 8 0 2 3 -5 2 -8 9 -4 14 3 5 0
9 -6 9 -7 0 -10 -5 -8 -12z"/>
<path d="M5282 1128 c2 -6 10 -13 16 -14 7 -1 8 0 2 3 -5 2 -8 9 -4 14 3 5 0
9 -6 9 -7 0 -10 -5 -8 -12z"/>
<path d="M5382 1128 c2 -6 10 -13 16 -14 7 -1 8 0 2 3 -5 2 -8 9 -4 14 3 5 0
9 -6 9 -7 0 -10 -5 -8 -12z"/>
<path d="M7812 1128 c2 -6 10 -13 16 -14 7 -1 8 0 2 3 -5 2 -8 9 -4 14 3 5 0
9 -6 9 -7 0 -10 -5 -8 -12z"/>
<path d="M7912 1128 c2 -6 10 -13 16 -14 7 -1 8 0 2 3 -5 2 -8 9 -4 14 3 5 0
9 -6 9 -7 0 -10 -5 -8 -12z"/>
<path d="M243 935 c0 -27 2 -38 4 -22 2 15 2 37 0 50 -2 12 -4 0 -4 -28z"/>
<path d="M2733 935 c0 -27 2 -38 4 -22 2 15 2 37 0 50 -2 12 -4 0 -4 -28z"/>
<path d="M5253 935 c0 -27 2 -38 4 -22 2 15 2 37 0 50 -2 12 -4 0 -4 -28z"/>
<path d="M7783 935 c0 -27 2 -38 4 -22 2 15 2 37 0 50 -2 12 -4 0 -4 -28z"/>
<path d="M338 959 c-6 -17 3 -69 11 -69 7 0 6 69 -2 76 -3 3 -7 0 -9 -7z"/>
<path d="M2828 959 c-6 -17 3 -69 11 -69 7 0 6 69 -2 76 -3 3 -7 0 -9 -7z"/>
<path d="M5348 959 c-6 -17 3 -69 11 -69 7 0 6 69 -2 76 -3 3 -7 0 -9 -7z"/>
<path d="M7878 959 c-6 -17 3 -69 11 -69 7 0 6 69 -2 76 -3 3 -7 0 -9 -7z"/>
<path d="M276 941 c-3 -5 2 -7 13 -4 15 4 21 -1 24 -21 4 -26 4 -26 3 1 -1 28
-28 44 -40 24z"/>
<path d="M376 941 c-3 -5 2 -7 13 -4 15 4 21 -1 24 -21 4 -26 4 -26 3 1 -1 28
-28 44 -40 24z"/>
<path d="M2766 941 c-3 -5 2 -7 13 -4 15 4 21 -1 24 -21 4 -26 4 -26 3 1 -1
28 -28 44 -40 24z"/>
<path d="M2866 941 c-3 -5 2 -7 13 -4 15 4 21 -1 24 -21 4 -26 4 -26 3 1 -1
28 -28 44 -40 24z"/>
<path d="M5286 941 c-3 -5 2 -7 13 -4 15 4 21 -1 24 -21 4 -26 4 -26 3 1 -1
28 -28 44 -40 24z"/>
<path d="M5386 941 c-3 -5 2 -7 13 -4 15 4 21 -1 24 -21 4 -26 4 -26 3 1 -1
28 -28 44 -40 24z"/>
<path d="M7816 941 c-3 -5 2 -7 13 -4 15 4 21 -1 24 -21 4 -26 4 -26 3 1 -1
28 -28 44 -40 24z"/>
<path d="M7916 941 c-3 -5 2 -7 13 -4 15 4 21 -1 24 -21 4 -26 4 -26 3 1 -1
28 -28 44 -40 24z"/>
<path d="M270 911 c0 -10 19 -25 25 -20 1 2 -3 10 -11 17 -8 7 -14 8 -14 3z"/>
<path d="M370 911 c0 -10 19 -25 25 -20 1 2 -3 10 -11 17 -8 7 -14 8 -14 3z"/>
<path d="M2760 911 c0 -10 19 -25 25 -20 1 2 -3 10 -11 17 -8 7 -14 8 -14 3z"/>
<path d="M2860 911 c0 -10 19 -25 25 -20 1 2 -3 10 -11 17 -8 7 -14 8 -14 3z"/>
<path d="M5280 911 c0 -10 19 -25 25 -20 1 2 -3 10 -11 17 -8 7 -14 8 -14 3z"/>
<path d="M5380 911 c0 -10 19 -25 25 -20 1 2 -3 10 -11 17 -8 7 -14 8 -14 3z"/>
<path d="M7810 911 c0 -10 19 -25 25 -20 1 2 -3 10 -11 17 -8 7 -14 8 -14 3z"/>
<path d="M7910 911 c0 -10 19 -25 25 -20 1 2 -3 10 -11 17 -8 7 -14 8 -14 3z"/>
<path d="M240 742 c0 -13 -7 -18 -22 -18 -18 1 -23 -5 -23 -24 0 -20 5 -25 28
-26 25 -1 27 1 27 42 0 24 -2 44 -5 44 -3 0 -5 -8 -5 -18z m-4 -33 c10 -17
-13 -36 -27 -22 -12 12 -4 33 11 33 5 0 12 -5 16 -11z"/>
<path d="M2730 742 c0 -13 -7 -18 -22 -18 -18 1 -23 -5 -23 -24 0 -20 5 -25
28 -26 25 -1 27 1 27 42 0 24 -2 44 -5 44 -3 0 -5 -8 -5 -18z m-4 -33 c10 -17
-13 -36 -27 -22 -12 12 -4 33 11 33 5 0 12 -5 16 -11z"/>
<path d="M5250 742 c0 -13 -7 -18 -22 -18 -18 1 -23 -5 -23 -24 0 -20 5 -25
28 -26 25 -1 27 1 27 42 0 24 -2 44 -5 44 -3 0 -5 -8 -5 -18z m-4 -33 c10 -17
-13 -36 -27 -22 -12 12 -4 33 11 33 5 0 12 -5 16 -11z"/>
<path d="M7780 742 c0 -13 -7 -18 -22 -18 -18 1 -23 -5 -23 -24 0 -20 5 -25
28 -26 25 -1 27 1 27 42 0 24 -2 44 -5 44 -3 0 -5 -8 -5 -18z m-4 -33 c10 -17
-13 -36 -27 -22 -12 12 -4 33 11 33 5 0 12 -5 16 -11z"/>
<path d="M338 739 c-6 -17 3 -69 11 -69 7 0 6 69 -2 76 -3 3 -7 0 -9 -7z"/>
<path d="M2828 739 c-6 -17 3 -69 11 -69 7 0 6 69 -2 76 -3 3 -7 0 -9 -7z"/>
<path d="M5348 739 c-6 -17 3 -69 11 -69 7 0 6 69 -2 76 -3 3 -7 0 -9 -7z"/>
<path d="M7878 739 c-6 -17 3 -69 11 -69 7 0 6 69 -2 76 -3 3 -7 0 -9 -7z"/>
<path d="M276 721 c-3 -5 3 -7 14 -4 12 3 20 2 19 -3 -4 -21 2 -44 10 -44 5 0
6 12 2 28 -7 27 -34 41 -45 23z"/>
<path d="M376 721 c-3 -5 3 -7 14 -4 12 3 20 2 19 -3 -4 -21 2 -44 10 -44 5 0
6 12 2 28 -7 27 -34 41 -45 23z"/>
<path d="M2766 721 c-3 -5 3 -7 14 -4 12 3 20 2 19 -3 -4 -21 2 -44 10 -44 5
0 6 12 2 28 -7 27 -34 41 -45 23z"/>
<path d="M2866 721 c-3 -5 3 -7 14 -4 12 3 20 2 19 -3 -4 -21 2 -44 10 -44 5
0 6 12 2 28 -7 27 -34 41 -45 23z"/>
<path d="M5286 721 c-3 -5 3 -7 14 -4 12 3 20 2 19 -3 -4 -21 2 -44 10 -44 5
0 6 12 2 28 -7 27 -34 41 -45 23z"/>
<path d="M5386 721 c-3 -5 3 -7 14 -4 12 3 20 2 19 -3 -4 -21 2 -44 10 -44 5
0 6 12 2 28 -7 27 -34 41 -45 23z"/>
<path d="M7816 721 c-3 -5 3 -7 14 -4 12 3 20 2 19 -3 -4 -21 2 -44 10 -44 5
0 6 12 2 28 -7 27 -34 41 -45 23z"/>
<path d="M7916 721 c-3 -5 3 -7 14 -4 12 3 20 2 19 -3 -4 -21 2 -44 10 -44 5
0 6 12 2 28 -7 27 -34 41 -45 23z"/>
<path d="M272 688 c2 -6 10 -13 16 -14 7 -1 8 0 2 3 -5 2 -8 9 -4 14 3 5 0 9
-6 9 -7 0 -10 -5 -8 -12z"/>
<path d="M372 688 c2 -6 10 -13 16 -14 7 -1 8 0 2 3 -5 2 -8 9 -4 14 3 5 0 9
-6 9 -7 0 -10 -5 -8 -12z"/>
<path d="M2762 688 c2 -6 10 -13 16 -14 7 -1 8 0 2 3 -5 2 -8 9 -4 14 3 5 0 9
-6 9 -7 0 -10 -5 -8 -12z"/>
<path d="M2862 688 c2 -6 10 -13 16 -14 7 -1 8 0 2 3 -5 2 -8 9 -4 14 3 5 0 9
-6 9 -7 0 -10 -5 -8 -12z"/>
<path d="M5282 688 c2 -6 10 -13 16 -14 7 -1 8 0 2 3 -5 2 -8 9 -4 14 3 5 0 9
-6 9 -7 0 -10 -5 -8 -12z"/>
<path d="M5382 688 c2 -6 10 -13 16 -14 7 -1 8 0 2 3 -5 2 -8 9 -4 14 3 5 0 9
-6 9 -7 0 -10 -5 -8 -12z"/>
<path d="M7812 688 c2 -6 10 -13 16 -14 7 -1 8 0 2 3 -5 2 -8 9 -4 14 3 5 0 9
-6 9 -7 0 -10 -5 -8 -12z"/>
<path d="M7912 688 c2 -6 10 -13 16 -14 7 -1 8 0 2 3 -5 2 -8 9 -4 14 3 5 0 9
-6 9 -7 0 -10 -5 -8 -12z"/>
<path d="M243 495 c0 -27 2 -38 4 -22 2 15 2 37 0 50 -2 12 -4 0 -4 -28z"/>
<path d="M2733 495 c0 -27 2 -38 4 -22 2 15 2 37 0 50 -2 12 -4 0 -4 -28z"/>
<path d="M5253 495 c0 -27 2 -38 4 -22 2 15 2 37 0 50 -2 12 -4 0 -4 -28z"/>
<path d="M7783 495 c0 -27 2 -38 4 -22 2 15 2 37 0 50 -2 12 -4 0 -4 -28z"/>
<path d="M338 519 c-6 -17 3 -69 11 -69 7 0 6 69 -2 76 -3 3 -7 0 -9 -7z"/>
<path d="M2828 519 c-6 -17 3 -69 11 -69 7 0 6 69 -2 76 -3 3 -7 0 -9 -7z"/>
<path d="M5348 519 c-6 -17 3 -69 11 -69 7 0 6 69 -2 76 -3 3 -7 0 -9 -7z"/>
<path d="M7878 519 c-6 -17 3 -69 11 -69 7 0 6 69 -2 76 -3 3 -7 0 -9 -7z"/>
<path d="M276 501 c-3 -5 2 -7 13 -4 15 4 21 -1 24 -21 4 -26 4 -26 3 1 -1 28
-28 44 -40 24z"/>
<path d="M376 501 c-3 -5 2 -7 13 -4 15 4 21 -1 24 -21 4 -26 4 -26 3 1 -1 28
-28 44 -40 24z"/>
<path d="M2766 501 c-3 -5 2 -7 13 -4 15 4 21 -1 24 -21 4 -26 4 -26 3 1 -1
28 -28 44 -40 24z"/>
<path d="M2866 501 c-3 -5 2 -7 13 -4 15 4 21 -1 24 -21 4 -26 4 -26 3 1 -1
28 -28 44 -40 24z"/>
<path d="M5286 501 c-3 -5 2 -7 13 -4 15 4 21 -1 24 -21 4 -26 4 -26 3 1 -1
28 -28 44 -40 24z"/>
<path d="M5386 501 c-3 -5 2 -7 13 -4 15 4 21 -1 24 -21 4 -26 4 -26 3 1 -1
28 -28 44 -40 24z"/>
<path d="M7816 501 c-3 -5 2 -7 13 -4 15 4 21 -1 24 -21 4 -26 4 -26 3 1 -1
28 -28 44 -40 24z"/>
<path d="M7916 501 c-3 -5 2 -7 13 -4 15 4 21 -1 24 -21 4 -26 4 -26 3 1 -1
28 -28 44 -40 24z"/>
<path d="M270 471 c0 -10 19 -25 25 -20 1 2 -3 10 -11 17 -8 7 -14 8 -14 3z"/>
<path d="M370 471 c0 -10 19 -25 25 -20 1 2 -3 10 -11 17 -8 7 -14 8 -14 3z"/>
<path d="M2760 471 c0 -10 19 -25 25 -20 1 2 -3 10 -11 17 -8 7 -14 8 -14 3z"/>
<path d="M2860 471 c0 -10 19 -25 25 -20 1 2 -3 10 -11 17 -8 7 -14 8 -14 3z"/>
<path d="M5280 471 c0 -10 19 -25 25 -20 1 2 -3 10 -11 17 -8 7 -14 8 -14 3z"/>
<path d="M5380 471 c0 -10 19 -25 25 -20 1 2 -3 10 -11 17 -8 7 -14 8 -14 3z"/>
<path d="M7810 471 c0 -10 19 -25 25 -20 1 2 -3 10 -11 17 -8 7 -14 8 -14 3z"/>
<path d="M7910 471 c0 -10 19 -25 25 -20 1 2 -3 10 -11 17 -8 7 -14 8 -14 3z"/>
<path d="M7672 328 c-7 -7 -12 -44 -12 -98 0 -54 5 -91 12 -98 17 -17 619 -17
636 0 7 7 12 44 12 98 0 54 -5 91 -12 98 -17 17 -619 17 -636 0z m143 -73 c0
-13 -8 -21 -22 -23 -13 -2 -23 -12 -26 -25 -2 -12 -5 0 -6 26 -1 47 0 48 27
45 19 -2 27 -9 27 -23z m113 -22 c2 -8 -6 -13 -23 -13 -16 0 -24 -4 -20 -10 4
-6 16 -8 28 -4 17 5 19 3 11 -6 -18 -18 -47 -8 -55 20 -6 25 -8 23 -22 -20 -3
-8 -6 -1 -6 17 -1 31 0 32 41 30 23 -1 43 -8 46 -14z m32 0 c1 -17 1 -17 14 0
20 26 26 21 15 -13 -13 -37 -22 -38 -37 -5 -15 32 -15 35 -2 35 6 0 10 -8 10
-17z m57 -30 c-3 -10 -5 -2 -5 17 0 19 2 27 5 18 2 -10 2 -26 0 -35z m68 17
c0 -18 -6 -26 -23 -28 -24 -4 -38 18 -28 44 3 9 15 14 28 12 17 -2 23 -10 23
-28z m48 -17 c6 2 14 14 18 28 6 21 7 21 8 -8 1 -29 -2 -33 -24 -33 -22 0 -25
4 -24 33 2 31 2 31 6 4 3 -16 10 -26 16 -24z m85 17 c0 -23 -4 -30 -19 -30
-10 0 -19 4 -19 10 0 5 8 7 18 4 16 -5 16 -5 0 9 -23 19 -23 37 0 37 14 0 19
-8 20 -30z"/>
<path d="M7770 255 c0 -10 7 -15 18 -13 21 4 19 22 -2 26 -10 2 -16 -3 -16
-13z"/>
<path d="M8044 229 c-10 -17 13 -36 27 -22 12 12 4 33 -11 33 -5 0 -12 -5 -16
-11z"/>
<path d="M8352 328 c-7 -7 -12 -44 -12 -98 0 -54 5 -91 12 -98 16 -16 210 -16
226 0 7 7 12 44 12 98 0 54 -5 91 -12 98 -16 16 -210 16 -226 0z m117 -100
c-1 -28 -3 -34 -6 -18 -3 14 -9 30 -14 37 -9 10 -4 15 19 22 1 1 1 -18 1 -41z"/>
<path d="M8622 328 c-7 -7 -12 -44 -12 -98 0 -54 5 -91 12 -98 16 -16 210 -16
226 0 7 7 12 44 12 98 0 54 -5 91 -12 98 -16 16 -210 16 -226 0z m135 -74 c4
-11 -2 -23 -17 -34 l-24 -18 25 -5 c19 -3 18 -5 -9 -6 -36 -1 -35 12 1 38 14
10 16 16 7 25 -8 8 -13 7 -20 -4 -8 -13 -10 -12 -10 3 0 22 38 23 47 1z"/>
<path d="M8892 328 c-7 -7 -12 -44 -12 -98 0 -54 5 -91 12 -98 16 -16 210 -16
226 0 7 7 12 44 12 98 0 54 -5 91 -12 98 -16 16 -210 16 -226 0z m135 -95 c-2
-30 -6 -38 -21 -38 -11 0 -21 7 -23 15 -4 12 -3 13 5 1 5 -7 15 -10 22 -6 8 5
8 11 2 17 -6 6 -8 17 -5 24 3 8 1 14 -5 14 -6 0 -13 -6 -15 -12 -3 -8 -6 -6
-6 5 -1 12 7 17 24 17 22 0 24 -4 22 -37z"/>
<path d="M9162 328 c-7 -7 -12 -44 -12 -98 0 -54 5 -91 12 -98 16 -16 210 -16
226 0 7 7 12 44 12 98 0 54 -5 91 -12 98 -16 16 -210 16 -226 0z m130 -126
c-3 -8 -7 -10 -11 -4 -3 5 -14 11 -24 13 -18 4 -17 6 5 34 l23 29 6 -29 c3
-17 3 -36 1 -43z"/>
<path d="M9265 230 c-3 -5 -1 -10 4 -10 6 0 11 5 11 10 0 6 -2 10 -4 10 -3 0
-8 -4 -11 -10z"/>
<path d="M9432 328 c-7 -7 -12 -44 -12 -98 0 -54 5 -91 12 -98 16 -16 210 -16
226 0 7 7 12 44 12 98 0 54 -5 91 -12 98 -16 16 -210 16 -226 0z m118 -67
l-25 -7 23 -6 c32 -9 27 -52 -5 -56 -13 -2 -23 1 -23 6 0 5 8 9 18 8 9 0 17 6
17 14 0 8 -8 14 -17 14 -11 -1 -18 5 -18 17 0 14 7 19 28 18 l27 -1 -25 -7z"/>
<path d="M9702 328 c-7 -7 -12 -44 -12 -98 0 -54 5 -91 12 -98 17 -17 389 -17
406 0 7 7 12 44 12 98 0 54 -5 91 -12 98 -17 17 -389 17 -406 0z m123 -80 l20
-33 6 35 c6 33 6 32 8 -12 0 -27 -3 -48 -7 -48 -4 0 -16 15 -27 33 l-20 32 -6
-35 c-6 -33 -6 -32 -8 13 0 26 3 47 7 47 4 0 16 -15 27 -32z m199 -22 c1 -20
-2 -36 -5 -36 -8 0 -17 52 -11 69 7 20 14 5 16 -33z m-96 7 c2 -8 -6 -13 -23
-13 -16 0 -24 -4 -20 -10 4 -6 16 -8 27 -4 14 4 18 2 14 -5 -10 -16 -46 -13
-52 4 -10 25 4 47 28 43 12 -2 23 -9 26 -15z m59 -13 c0 -19 -6 -25 -24 -26
-19 -2 -22 1 -12 12 9 11 9 17 0 28 -10 11 -7 14 12 12 18 -1 24 -7 24 -26z"/>
<path d="M2608 83 c1381 -2 3643 -2 5025 0 1381 1 251 2 -2513 2 -2764 0
-3894 -1 -2512 -2z"/>
</g>
</svg>
